<svg id="visual" viewBox="0 0 540 960" width="540" height="960" xmlns="http://www.w3.org/2000/svg" xmlns:xlink="http://www.w3.org/1999/xlink" version="1.1"><rect x="0" y="0" width="540" height="960" fill="#FFFFFF"></rect><defs><linearGradient id="grad1_0" x1="0%" y1="0%" x2="100%" y2="100%"><stop offset="30%" stop-color="#ccc6f2" stop-opacity="1"></stop><stop offset="70%" stop-color="#ccc6f2" stop-opacity="1"></stop></linearGradient></defs><defs><linearGradient id="grad1_1" x1="0%" y1="0%" x2="100%" y2="100%"><stop offset="30%" stop-color="#ccc6f2" stop-opacity="1"></stop><stop offset="70%" stop-color="#ffffff" stop-opacity="1"></stop></linearGradient></defs><defs><linearGradient id="grad2_0" x1="0%" y1="0%" x2="100%" y2="100%"><stop offset="30%" stop-color="#ccc6f2" stop-opacity="1"></stop><stop offset="70%" stop-color="#ccc6f2" stop-opacity="1"></stop></linearGradient></defs><defs><linearGradient id="grad2_1" x1="0%" y1="0%" x2="100%" y2="100%"><stop offset="30%" stop-color="#ffffff" stop-opacity="1"></stop><stop offset="70%" stop-color="#ccc6f2" stop-opacity="1"></stop></linearGradient></defs><g transform="translate(540, 0)"><path d="M0 486C-53.5 457.7 -107.1 429.4 -170.3 411.1C-233.5 392.9 -306.5 384.8 -343.7 343.7C-380.8 302.5 -382.3 228.5 -400 165.7C-417.8 102.9 -451.9 51.5 -486 0L0 0Z" fill="#e6e2f9"></path><path d="M0 243C-26.8 228.8 -53.5 214.7 -85.1 205.6C-116.8 196.4 -153.2 192.4 -171.8 171.8C-190.4 151.3 -191.1 114.2 -200 82.9C-208.9 51.5 -226 25.7 -243 0L0 0Z" fill="#ccc6f2"></path></g><g transform="translate(0, 960)"><path d="M0 -486C60.2 -477.5 120.3 -468.9 186 -449C251.6 -429.1 322.8 -397.7 340.8 -340.8C358.8 -283.9 323.7 -201.5 339.1 -140.4C354.4 -79.4 420.2 -39.7 486 0L0 0Z" fill="#e6e2f9"></path><path d="M0 -243C30.1 -238.7 60.2 -234.5 93 -224.5C125.8 -214.5 161.4 -198.9 170.4 -170.4C179.4 -142 161.9 -100.8 169.5 -70.2C177.2 -39.7 210.1 -19.8 243 0L0 0Z" fill="#ccc6f2"></path></g></svg>