<!-- Generated by IcoMoon.io -->
<svg version="1.1" xmlns="http://www.w3.org/2000/svg" width="1024" height="1024" viewBox="0 0 1024 1024">
<title></title>
<g id="icomoon-ignore">
</g>
<path fill="#000" d="M760.021 960.085c-3.797 2.005-3.584 2.816 0.213 0.896 1.158-0.504 2.148-1.18 2.988-2.007l-0.001 0.001c0-0.683-0.085-0.597-3.2 1.109zM767.616 956.075c-1.792 1.408-1.792 1.493 0.384 0.384 1.195-0.597 2.219-1.28 2.219-1.493 0-0.811-0.512-0.597-2.603 1.109zM772.608 953.045c-1.792 1.408-1.792 1.493 0.384 0.384 1.195-0.597 2.219-1.28 2.219-1.493 0-0.811-0.512-0.597-2.603 1.109zM777.6 950.059c-1.792 1.408-1.792 1.493 0.384 0.384 1.195-0.597 2.219-1.28 2.219-1.493 0-0.811-0.512-0.597-2.603 1.109zM784.512 945.579c-3.499 2.219-4.608 3.712-1.493 2.005 2.219-1.28 5.803-4.011 5.205-4.096-1.42 0.616-2.64 1.316-3.771 2.131l0.059-0.040zM478.464 0.256c-2.219 0.213-9.216 0.896-15.531 1.408-145.408 13.099-281.643 91.563-367.915 212.181-45.775 62.895-77.783 138.685-90.029 220.926l-0.339 2.775c-4.096 28.117-4.608 36.437-4.608 74.581s0.512 46.421 4.608 74.581c27.819 192.256 164.651 353.792 350.208 413.653 33.237 10.709 68.267 18.005 108.075 22.4 15.531 1.707 82.56 1.707 98.091 0 68.736-7.595 127.019-24.619 184.448-53.931 8.789-4.523 10.496-5.717 9.301-6.699-9.995-12.129-37.355-48.515-64.468-85.095l-18.903-26.692-81.877-110.592-102.571-151.808c-65.433-99.216-99.444-148.646-133.759-197.848l30.463 46.126c-0.384-0.085-0.811 67.371-0.981 149.717-0.299 144.213-0.384 150.016-2.219 153.429-1.782 4.011-4.855 7.181-8.682 9.041l-0.107 0.047c-3.2 1.621-6.016 1.92-21.12 1.92h-17.323l-4.608-2.901c-2.842-1.81-5.116-4.276-6.649-7.193l-0.049-0.103-2.091-4.523 0.213-200.661 0.299-200.747 3.115-3.883c2.078-2.431 4.533-4.465 7.29-6.031l0.134-0.070c4.096-2.005 5.717-2.219 23.040-2.219 20.437 0 23.808 0.811 29.141 6.613-3.535-9.142 37.17 51.494 77.55 112.364l45.97 73.705c66.475 100.779 157.312 238.379 201.984 305.963l81.067 122.795 4.096-2.688c39.964-26.807 74.514-57.263 104.652-91.681l0.521-0.607c62.292-71.004 105.341-160.336 120.145-258.914l0.346-2.804c4.096-28.117 4.608-36.437 4.608-74.581s-0.512-46.421-4.608-74.581c-27.819-192.256-164.651-353.792-350.208-413.653-30.798-10.215-66.93-18.074-104.21-22.107l-2.371-0.208c-9.6-0.981-75.776-2.091-84.139-1.408zM688.043 309.931c4.792 2.445 8.409 6.618 10.072 11.677l0.040 0.142c0.811 2.603 0.981 58.24 0.811 183.637l-0.299 179.968-31.744-48.64-31.829-48.64v-130.816c0-84.565 0.384-132.096 0.981-134.4 1.521-5.465 5.084-9.919 9.795-12.576l0.103-0.054c4.096-2.091 5.589-2.304 21.333-2.304 14.805 0 17.408 0.213 20.736 2.005z"></path>
</svg>
